<?xml version="1.0" encoding="utf-8"?>
<!-- Generator: Adobe Illustrator 22.0.1, SVG Export Plug-In . SVG Version: 6.00 Build 0)  -->
<svg version="1.1" id="Calque_1" xmlns="http://www.w3.org/2000/svg" xmlns:xlink="http://www.w3.org/1999/xlink" x="0px" y="0px"
	 viewBox="0 0 500 500" style="enable-background:new 0 0 500 500;" xml:space="preserve">
<style type="text/css">
	.st0{fill:none;}
	.st1{fill:url(#SVGID_1_);}
	.st2{fill:url(#SVGID_2_);}
	.st3{fill:#FFFFFF;}
	.st4{fill:#6298C8;}
</style>
<rect y="0" class="st0" width="500" height="500"/>
<g>
	
		<linearGradient id="SVGID_1_" gradientUnits="userSpaceOnUse" x1="52.5624" y1="206.4459" x2="278.3506" y2="400.7063" gradientTransform="matrix(1 0 0 -1 0 500.6614)">
		<stop  offset="0" style="stop-color:#5CA0D5"/>
		<stop  offset="1" style="stop-color:#316A99"/>
	</linearGradient>
	<path class="st1" d="M284.4,60c-10.8-1.8-22-2.6-32.8-2.6s-21,1-30.2,2.6c-26.6,4.8-31.6,14.6-31.6,32.8v24h63v8h-63h-23.6
		c-18.4,0-34.4,11-39.4,32c-5.8,24-6,39,0,64c4.4,18.6,15.2,32,33.6,32H182V224c0-20.8,18-39.2,39.4-39.2h63
		c17.6,0,31.6-14.4,31.6-32v-60C316,75.6,301.4,62.8,284.4,60z M217.4,100.8c-6.6,0-11.8-5.4-11.8-12s5.2-12,11.8-12
		s11.8,5.4,11.8,12S224,100.8,217.4,100.8z"/>
	
		<linearGradient id="SVGID_2_" gradientUnits="userSpaceOnUse" x1="328.9542" y1="342.0143" x2="244.9032" y2="223.0969" gradientTransform="matrix(1 0 0 -1 0 500.6614)">
		<stop  offset="0" style="stop-color:#FFD43E"/>
		<stop  offset="1" style="stop-color:#FFE975"/>
	</linearGradient>
	<path class="st2" d="M379,156.8c-4.6-18.2-13.2-32-31.6-32h-23.6v28c0,21.8-18.4,40-39.4,40h-63c-17.2,0-31.6,14.8-31.6,32v60
		c0,17,14.8,27.2,31.6,32c20,5.8,39.2,7,63,0c15.8-4.6,31.6-13.8,31.6-32v-24h-63v-8h63h31.6c18.4,0,25.2-12.8,31.6-32
		C385.6,201,385.2,182,379,156.8z M288.4,276.8c6.6,0,11.8,5.4,11.8,12s-5.2,12-11.8,12c-6.6,0-11.8-5.4-11.8-12
		C276.6,282.2,281.8,276.8,288.4,276.8z"/>
</g>
<g>
	<path class="st3" d="M134.8,437.6v-11.8h-4V424h10.4l-0.2,1.6h-3.8v11.8h-2.4V437.6z"/>
	<path class="st3" d="M143.2,437.6V424h2.2v5.6h5.6V424h2.2v13.6H151v-6h-5.6v6H143.2z"/>
	<path class="st3" d="M157.2,437.6V424h7.8v1.8h-5.8v4.2h5v1.6h-5v4.4h6l-0.2,1.8h-7.8V437.6z"/>
	<path class="st3" d="M174,437.6v-13.4c1-0.2,2.4-0.2,4.4-0.2c1.4,0,2.4,0.4,3.2,1.2c0.8,0.8,1.2,1.6,1.2,2.6c0,1.2-0.6,2.2-1.6,3
		c1.2,0.6,1.8,1.8,1.8,3.2c0,1-0.4,2-1.2,2.8s-2,1.2-3.6,1.2C176.6,437.8,175,437.8,174,437.6z M176,430h3.4
		c0.2-0.2,0.2-0.2,0.4-0.2l0.2-0.2c0,0,0.2-0.2,0.2-0.4c0.2-0.4,0.2-0.8,0.2-1.2c0-1.6-1-2.4-2.8-2.4c-0.4,0-1,0-1.8,0v4.4H176z
		 M176,436c1,0,1.8,0.2,2.2,0.2c1,0,1.8-0.2,2.2-0.6s0.6-1,0.6-1.8s-0.2-1.4-0.6-1.6s-1.2-0.6-2.2-0.6h-2v4.4H176z"/>
	<path class="st3" d="M186.2,437.6V424h7.8v1.8h-5.8v4.2h5v1.6h-5v4.4h6l-0.2,1.8h-7.8V437.6z"/>
	<path class="st3" d="M197.4,437.6V424h2.2v11.8h5.2l-0.2,1.8L197.4,437.6L197.4,437.6z"/>
	<path class="st3" d="M205.8,430.8c0-2.8,1-4.8,2.8-6c1-0.6,2.2-1,3.6-1c1.4,0,2.8,0.2,4,0.6c0.2,0,0.2,0,0.2,0l-0.6,1.6
		c0,0,0,0-0.2,0s-0.4,0-0.4-0.2s-0.4,0-0.6-0.2c-0.2,0-0.4,0-0.8-0.2c-0.6-0.2-1-0.2-1.6-0.2c-1.4,0-2.4,0.4-3,1.2
		c-0.6,0.8-1,2.2-1,4c0,2.2,0.4,3.6,1.2,4.2c0.4,0.4,0.8,0.6,1.2,0.8c0.4,0.2,1,0.2,1.6,0.2s1.4,0,2.4-0.2v-4l2.2-0.2v5.6
		c0,0-0.2,0-0.4,0s-0.4,0.2-0.6,0.2c-0.2,0-0.4,0-0.8,0.2c-0.4,0-0.6,0.2-1,0.2c-0.8,0.2-1.4,0.2-2.2,0.2c-1.8,0-3.4-0.6-4.4-1.8
		S205.8,433.2,205.8,430.8z"/>
	<path class="st3" d="M220,437.6V424h2.2v13.6H220z"/>
	<path class="st3" d="M224.8,437.6l4.4-13.2c0-0.2,0.4-0.4,0.6-0.4c0.2,0,0.8,0,2,0.2l4.4,13.6H234l-1.2-4H228l-1.2,4h-2V437.6z
		 M228.6,432h3.8l-1.8-6v0.2L228.6,432z"/>
	<path class="st3" d="M249,437.6l-1.4,0.2c-0.2,0-0.4-0.2-0.6-0.4l-6.2-10l0.2,10.2h-2.2V424l1.4-0.2c0.2,0,0.6,0.2,0.8,0.4l6.2,10
		l-0.4-10.2h2.2V437.6z"/>
	<path class="st3" d="M257.6,430.8c0-2.8,1-4.8,2.8-6c1-0.6,2.2-1,3.6-1s2.8,0.2,4,0.6c0.2,0,0.2,0,0.2,0l-0.6,1.6c0,0,0,0-0.2,0
		s-0.4,0-0.4-0.2s-0.4,0-0.6-0.2c-0.2,0-0.4,0-0.8-0.2c-0.6-0.2-1-0.2-1.6-0.2c-1.4,0-2.4,0.4-3,1.2c-0.6,0.8-1,2.2-1,4
		c0,2.2,0.4,3.6,1.2,4.2c0.4,0.4,0.8,0.6,1.2,0.8c0.4,0.2,1,0.2,1.6,0.2c1.2,0,2.4-0.2,3.8-0.6l0.6,1.8L268,437
		c-1.4,0.4-2.8,0.6-4.2,0.6c-1.8,0-3.4-0.6-4.4-1.8S257.6,433.2,257.6,430.8z"/>
	<path class="st3" d="M275,437.8c-1.6,0-3-0.6-4-1.8c-1-1.2-1.6-2.8-1.6-5s0.6-4,1.6-5.2s2.6-2,4.8-2c1.6,0,3,0.6,4,1.8
		c1,1.2,1.6,2.8,1.6,5s-0.6,4-1.6,5.2S277.2,437.8,275,437.8z M275.4,436c1.4,0,2.4-0.4,3-1.4s0.8-2.2,0.8-4s-0.4-3-1-3.8
		s-1.6-1.2-2.6-1.2c-1.4,0-2.4,0.4-3,1.4s-0.8,2.2-0.8,4s0.4,3,1,3.8S274.2,436,275.4,436z"/>
	<path class="st3" d="M284.4,437.6l0.6-13.4c0.8-0.2,1.6-0.2,2.4-0.2c0.2,0,0.4,0.2,0.6,0.4l3.6,9.8l3.6-9.8
		c0.2-0.2,0.2-0.4,0.6-0.4c1,0,1.8,0,2.4,0.2l0.6,13.4h-2l-0.4-11.6l-3.4,9.6c-1,0.2-1.8,0.2-2.2,0.2s-0.6-0.2-0.8-0.4l-3.4-9.6
		l-0.4,11.6h-1.8V437.6z"/>
	<path class="st3" d="M302.6,437.6l0.6-13.4c0.8-0.2,1.6-0.2,2.4-0.2c0.2,0,0.4,0.2,0.6,0.4l3.6,9.8l3.6-9.8
		c0.2-0.2,0.2-0.4,0.6-0.4c1,0,1.8,0,2.4,0.2l0.6,13.4h-2l-0.4-11.6l-3.4,9.6c-1,0.2-1.8,0.2-2.2,0.2s-0.6-0.2-0.8-0.4l-3.4-9.6
		l-0.4,11.6h-1.8V437.6z"/>
	<path class="st3" d="M320.6,433.6V424h2.2v9.2c0,1,0.2,1.6,0.6,2.2s1.2,0.8,2,0.8c2,0,2.8-1,2.8-3V424h2.2v8.8
		c0,1.6-0.4,2.8-1.2,3.6c-0.8,0.8-2.2,1.4-3.8,1.4c-1.6,0-2.8-0.4-3.6-1.2C321,436,320.6,434.8,320.6,433.6z"/>
	<path class="st3" d="M344.4,437.6l-1.4,0.2c-0.2,0-0.4-0.2-0.6-0.4l-6.2-10l0.2,10.2h-2.2V424l1.4-0.2c0.2,0,0.6,0.2,0.8,0.4
		l6.2,10l-0.4-10.2h2.2V437.6z"/>
	<path class="st3" d="M348.4,437.6V424h2.2v13.6H348.4z"/>
	<path class="st3" d="M356.8,437.6v-11.8h-4V424h10.4l-0.2,1.6h-3.8v11.8h-2.4V437.6z"/>
	<path class="st3" d="M368.2,437.6v-5.4l-4.4-8l2.2-0.2l3.4,6.4l3.4-6.4l2.2,0.2l-4.4,8v5.4H368.2z"/>
</g>
<rect x="164.8" y="386.2" class="st4" width="209.6" height="12"/>
<g>
	<path id="path46" class="st3" d="M175,376c0-8.8-2.6-13.4-7.6-13.6c-2,0-4,0.2-5.8,1c-1.6,0.6-2.6,1-3,1.6v21c3.2,2,6,3,8.6,2.8
		C172.2,388.6,175,384.2,175,376z M181.2,376.4c0,4.4-1,8.2-3.2,11.2c-2.4,3.4-5.6,5-9.8,5.2c-3.2,0.2-6.4-0.8-9.8-3V409l-5.4-2
		v-42.6c0.8-1,2-2,3.4-2.8c3.2-1.8,7.2-2.8,11.8-2.8l0,0c4.2,0,7.4,1.6,9.8,5.2C180,367.2,181.2,371.4,181.2,376.4z"/>
	<path id="path48" class="st3" d="M214.2,389c0,6-0.6,10.2-1.8,12.6s-3.6,4.2-7,5.6c-2.8,1-5.8,1.6-9,1.8l-0.8-3.4
		c3.2-0.4,5.6-0.8,6.8-1.4c2.6-0.8,4.4-2.2,5.4-4c0.8-1.4,1.2-4.4,1.2-8.6V390c-3.8,1.6-7.6,2.6-11.6,2.6c-2.6,0-5-0.8-7-2.6
		c-2.2-1.8-3.4-4.2-3.4-7v-22.6l5.4-1.8v22.6c0,2.4,0.8,4.2,2.4,5.6s3.6,2,6,1.8c2.4,0,5.2-1,8-2.8v-26.4h5.4L214.2,389L214.2,389z"
		/>
	<path id="path50" class="st3" d="M235.4,392.4c-0.6,0-1.2,0-1.8,0c-3,0-5.4-0.8-7.2-2.2c-1.8-1.4-2.6-3.4-2.6-6v-21.4H220v-3.4h3.8
		v-9l5.4-2v11h6v3.4h-6V384c0,2,0.6,3.4,1.6,4.4c1,0.6,2.4,1,4.4,1.2v2.8H235.4z"/>
	<path id="path52" class="st3" d="M268.2,392h-5.4v-20.8c0-2.2-0.4-4-1.4-5.4c-1.2-1.8-2.8-2.6-4.8-2.6c-2.4,0-5.6,1.4-9.4,4V392
		h-5.4v-50l5.4-1.8V363c3.4-2.6,7.2-3.8,11.4-3.8c2.8,0,5.2,1,7,2.8c1.8,2,2.6,4.4,2.6,7.2L268.2,392L268.2,392z"/>
	<path id="path54" class="st3" d="M297,375.2c0-3.4-0.6-6.2-2-8.4c-1.6-2.8-4-4.2-7.2-4.2c-6,0.4-8.8,4.6-8.8,12.8
		c0,3.8,0.6,6.8,1.8,9.4c1.6,3.2,4,4.8,7.2,4.8C294,389.2,297,384.6,297,375.2z M302.8,375.2c0,4.8-1.2,8.8-3.8,12
		c-2.8,3.6-6.4,5.4-11.2,5.4c-4.8,0-8.4-1.8-11.2-5.4c-2.4-3.2-3.6-7.2-3.6-12c0-4.6,1.4-8.4,4-11.4c2.8-3.4,6.4-5,10.8-5
		s8.2,1.6,11,5C301.6,366.8,302.8,370.6,302.8,375.2z"/>
	<path id="path56" class="st3" d="M334,392h-5.4v-22c0-2.4-0.8-4.4-2.2-5.6c-1.4-1.4-3.4-2-5.8-2c-2.6,0-5,0.8-7.4,2.6v27h-5.4
		v-27.8c3.2-2.2,6-3.8,8.6-4.4c2.4-0.6,4.6-1,6.6-1c1.2,0,2.4,0.2,3.6,0.4c2.2,0.4,3.8,1.4,5.2,2.8c1.4,1.4,2.2,3.2,2.2,5.4L334,392
		L334,392z"/>
	<path id="text3004" class="st3" d="M344.4,354.8h1v-6h2.2V348h-5.4v0.8h2.2L344.4,354.8 M348.4,354.8h0.8v-5.4l1.8,5.4h1l1.8-5.4
		v5.4h0.8V348h-1.2l-2,5.8l-1.8-5.8h-1.4v6.8"/>
</g>
<g>
	<path class="st3" d="M341.8,391.8c-0.2-0.2-0.2-0.4-0.2-0.8s0-0.6,0.2-0.8c0.2-0.2,0.4-0.4,0.8-0.4s0.6,0.2,0.8,0.4
		c0.2,0.2,0.2,0.4,0.2,0.8s0,0.6-0.2,0.8c-0.2,0.2-0.4,0.4-0.8,0.4C342.2,392,342,392,341.8,391.8z"/>
	<path class="st3" d="M346,391.2v-11.8l1.8-0.2v4.2c0.8-0.4,1.6-0.6,2.4-0.6c1,0,1.8,0.4,2.4,1.2s1,1.8,1,3.4c0,1.4-0.4,2.6-1,3.4
		c-0.8,0.8-1.8,1.2-3.2,1.2c-0.6,0-1.2,0-1.8-0.2C346.8,391.6,346.4,391.4,346,391.2z M351.6,387.4c0-1-0.2-1.8-0.6-2.4
		c-0.4-0.4-0.8-0.8-1.6-0.8c-0.6,0-1.2,0.2-1.8,0.4v5.8c0.4,0.2,0.8,0.2,1.4,0.2c1,0,1.6-0.2,1.8-0.8
		C351.6,389.2,351.6,388.4,351.6,387.4z"/>
	<path class="st3" d="M361.8,390l0.6,1.2c-0.2,0.2-0.6,0.4-1.2,0.6s-1.2,0.4-2,0.4c-1.2,0-2.2-0.4-3-1.2c-0.8-0.8-1.2-1.8-1.2-3.4
		c0-0.8,0.2-1.6,0.4-2.2c0.2-0.6,0.6-1.2,1-1.4c0.8-0.8,1.8-1,2.8-1s1.6,0.2,2.2,0.8c0.6,0.4,0.8,1,0.8,1.8c0,1-0.4,1.6-1.4,2.2
		c-0.8,0.6-2.2,0.8-4.2,0.8c0,0.6,0.2,1,0.6,1.6c0.4,0.4,1,0.8,1.8,0.8S361,390.4,361.8,390z M360.8,385.4c0-0.4-0.2-0.6-0.4-0.8
		c-0.2-0.2-0.6-0.4-1-0.4c-0.8,0-1.4,0.2-1.8,0.8c-0.4,0.6-0.8,1.2-0.8,2.2C359.4,387.2,360.8,386.6,360.8,385.4z"/>
</g>
</svg>
