<?xml version="1.0" encoding="utf-8"?>
<!-- Generator: Adobe Illustrator 22.0.1, SVG Export Plug-In . SVG Version: 6.00 Build 0)  -->
<svg version="1.1" id="Calque_1" xmlns="http://www.w3.org/2000/svg" xmlns:xlink="http://www.w3.org/1999/xlink" x="0px" y="0px"
	 viewBox="0 0 500 700" style="enable-background:new 0 0 500 700;" xml:space="preserve">
<style type="text/css">
	.st0{fill:none;}
	.st1{fill:url(#SVGID_1_);}
	.st2{fill:url(#SVGID_2_);}
	.st3{fill:#FFFFFF;}
	.st4{fill:#6298C8;}
	.st5{fill:url(#SVGID_3_);}
	.st6{fill:url(#SVGID_4_);}
	.st7{fill:none;stroke:#FFFFFF;stroke-width:3.5;stroke-miterlimit:10;}
	.st8{fill:none;stroke:#6298C8;stroke-width:3;stroke-miterlimit:10;}
	.st9{fill:#9A9A9A;}
</style>
<rect class="st0" width="250" height="250"/>
<g>
	
		<linearGradient id="SVGID_1_" gradientUnits="userSpaceOnUse" x1="26.2812" y1="754.2308" x2="139.1753" y2="851.3611" gradientTransform="matrix(1 0 0 -1 0 901.3386)">
		<stop  offset="0" style="stop-color:#5A9FD4"/>
		<stop  offset="1" style="stop-color:#306998"/>
	</linearGradient>
	<path class="st1" d="M142.2,30c-5.4-0.9-11-1.3-16.4-1.3s-10.5,0.5-15.1,1.3c-13.3,2.4-15.8,7.3-15.8,16.4v12h31.5v4H94.9H83.1
		c-9.2,0-17.2,5.5-19.7,16c-2.9,12-3,19.5,0,32c2.2,9.3,7.6,16,16.8,16H91V112c0-10.4,9-19.6,19.7-19.6h31.5c8.8,0,15.8-7.2,15.8-16
		v-30C158,37.8,150.7,31.4,142.2,30z M108.7,50.4c-3.3,0-5.9-2.7-5.9-6s2.6-6,5.9-6s5.9,2.7,5.9,6S112,50.4,108.7,50.4z"/>
	
		<linearGradient id="SVGID_2_" gradientUnits="userSpaceOnUse" x1="164.4771" y1="822.015" x2="122.4516" y2="762.5563" gradientTransform="matrix(1 0 0 -1 0 901.3386)">
		<stop  offset="0" style="stop-color:#FFD43B"/>
		<stop  offset="1" style="stop-color:#FFE873"/>
	</linearGradient>
	<path class="st2" d="M189.5,78.4c-2.3-9.1-6.6-16-15.8-16h-11.8v14c0,10.9-9.2,20-19.7,20h-31.5c-8.6,0-15.8,7.4-15.8,16v30
		c0,8.5,7.4,13.6,15.8,16c10,2.9,19.6,3.5,31.5,0c7.9-2.3,15.8-6.9,15.8-16v-12h-31.5v-4H158h15.8c9.2,0,12.6-6.4,15.8-16
		C192.8,100.5,192.6,91,189.5,78.4z M144.2,138.4c3.3,0,5.9,2.7,5.9,6s-2.6,6-5.9,6c-3.3,0-5.9-2.7-5.9-6
		C138.3,141.1,140.9,138.4,144.2,138.4z"/>
</g>
<g>
	<path class="st3" d="M67.4,218.8v-5.9h-2V212h5.2l-0.1,0.8h-1.9v5.9h-1.2V218.8z"/>
	<path class="st3" d="M71.6,218.8V212h1.1v2.8h2.8V212h1.1v6.8h-1.1v-3h-2.8v3H71.6z"/>
	<path class="st3" d="M78.6,218.8V212h3.9v0.9h-2.9v2.1h2.5v0.8h-2.5v2.2h3l-0.1,0.9L78.6,218.8L78.6,218.8z"/>
	<path class="st3" d="M87,218.8v-6.7c0.5-0.1,1.2-0.1,2.2-0.1c0.7,0,1.2,0.2,1.6,0.6c0.4,0.4,0.6,0.8,0.6,1.3c0,0.6-0.3,1.1-0.8,1.5
		c0.6,0.3,0.9,0.9,0.9,1.6c0,0.5-0.2,1-0.6,1.4s-1,0.6-1.8,0.6C88.3,218.9,87.5,218.9,87,218.8z M88,215h1.7
		c0.1-0.1,0.1-0.1,0.2-0.1l0.1-0.1c0,0,0.1-0.1,0.1-0.2c0.1-0.2,0.1-0.4,0.1-0.6c0-0.8-0.5-1.2-1.4-1.2c-0.2,0-0.5,0-0.9,0v2.2
		L88,215L88,215z M88,218c0.5,0,0.9,0.1,1.1,0.1c0.5,0,0.9-0.1,1.1-0.3s0.3-0.5,0.3-0.9s-0.1-0.7-0.3-0.8s-0.6-0.3-1.1-0.3h-1
		L88,218L88,218z"/>
	<path class="st3" d="M93.1,218.8V212H97v0.9h-2.9v2.1h2.5v0.8h-2.5v2.2h3l-0.1,0.9L93.1,218.8L93.1,218.8z"/>
	<path class="st3" d="M98.7,218.8V212h1.1v5.9h2.6l-0.1,0.9L98.7,218.8L98.7,218.8z"/>
	<path class="st3" d="M102.9,215.4c0-1.4,0.5-2.4,1.4-3c0.5-0.3,1.1-0.5,1.8-0.5c0.7,0,1.4,0.1,2,0.3c0.1,0,0.1,0,0.1,0l-0.3,0.8
		c0,0,0,0-0.1,0s-0.2,0-0.2-0.1s-0.2,0-0.3-0.1c-0.1,0-0.2,0-0.4-0.1c-0.3-0.1-0.5-0.1-0.8-0.1c-0.7,0-1.2,0.2-1.5,0.6
		c-0.3,0.4-0.5,1.1-0.5,2c0,1.1,0.2,1.8,0.6,2.1c0.2,0.2,0.4,0.3,0.6,0.4c0.2,0.1,0.5,0.1,0.8,0.1s0.7,0,1.2-0.1v-2l1.1-0.1v2.8
		c0,0-0.1,0-0.2,0s-0.2,0.1-0.3,0.1c-0.1,0-0.2,0-0.4,0.1c-0.2,0-0.3,0.1-0.5,0.1c-0.4,0.1-0.7,0.1-1.1,0.1c-0.9,0-1.7-0.3-2.2-0.9
		S102.9,216.6,102.9,215.4z"/>
	<path class="st3" d="M110,218.8V212h1.1v6.8H110z"/>
	<path class="st3" d="M112.4,218.8l2.2-6.6c0-0.1,0.2-0.2,0.3-0.2c0.1,0,0.4,0,1,0.1l2.2,6.8H117l-0.6-2H114l-0.6,2h-1V218.8z
		 M114.3,216h1.9l-0.9-3v0.1L114.3,216z"/>
	<path class="st3" d="M124.5,218.8l-0.7,0.1c-0.1,0-0.2-0.1-0.3-0.2l-3.1-5l0.1,5.1h-1.1V212l0.7-0.1c0.1,0,0.3,0.1,0.4,0.2l3.1,5
		l-0.2-5.1h1.1V218.8z"/>
	<path class="st3" d="M128.8,215.4c0-1.4,0.5-2.4,1.4-3c0.5-0.3,1.1-0.5,1.8-0.5s1.4,0.1,2,0.3c0.1,0,0.1,0,0.1,0l-0.3,0.8
		c0,0,0,0-0.1,0s-0.2,0-0.2-0.1s-0.2,0-0.3-0.1c-0.1,0-0.2,0-0.4-0.1c-0.3-0.1-0.5-0.1-0.8-0.1c-0.7,0-1.2,0.2-1.5,0.6
		c-0.3,0.4-0.5,1.1-0.5,2c0,1.1,0.2,1.8,0.6,2.1c0.2,0.2,0.4,0.3,0.6,0.4c0.2,0.1,0.5,0.1,0.8,0.1c0.6,0,1.2-0.1,1.9-0.3l0.3,0.9
		l-0.2,0.1c-0.7,0.2-1.4,0.3-2.1,0.3c-0.9,0-1.7-0.3-2.2-0.9S128.8,216.6,128.8,215.4z"/>
	<path class="st3" d="M137.5,218.9c-0.8,0-1.5-0.3-2-0.9c-0.5-0.6-0.8-1.4-0.8-2.5s0.3-2,0.8-2.6s1.3-1,2.4-1c0.8,0,1.5,0.3,2,0.9
		c0.5,0.6,0.8,1.4,0.8,2.5s-0.3,2-0.8,2.6S138.6,218.9,137.5,218.9z M137.7,218c0.7,0,1.2-0.2,1.5-0.7s0.4-1.1,0.4-2
		s-0.2-1.5-0.5-1.9s-0.8-0.6-1.3-0.6c-0.7,0-1.2,0.2-1.5,0.7s-0.4,1.1-0.4,2s0.2,1.5,0.5,1.9S137.1,218,137.7,218z"/>
	<path class="st3" d="M142.2,218.8l0.3-6.7c0.4-0.1,0.8-0.1,1.2-0.1c0.1,0,0.2,0.1,0.3,0.2l1.8,4.9l1.8-4.9c0.1-0.1,0.1-0.2,0.3-0.2
		c0.5,0,0.9,0,1.2,0.1l0.3,6.7h-1l-0.2-5.8l-1.7,4.8c-0.5,0.1-0.9,0.1-1.1,0.1s-0.3-0.1-0.4-0.2l-1.7-4.8l-0.2,5.8L142.2,218.8
		L142.2,218.8z"/>
	<path class="st3" d="M151.3,218.8l0.3-6.7c0.4-0.1,0.8-0.1,1.2-0.1c0.1,0,0.2,0.1,0.3,0.2l1.8,4.9l1.8-4.9c0.1-0.1,0.1-0.2,0.3-0.2
		c0.5,0,0.9,0,1.2,0.1l0.3,6.7h-1l-0.2-5.8l-1.7,4.8c-0.5,0.1-0.9,0.1-1.1,0.1s-0.3-0.1-0.4-0.2l-1.7-4.8l-0.2,5.8L151.3,218.8
		L151.3,218.8z"/>
	<path class="st3" d="M160.3,216.8V212h1.1v4.6c0,0.5,0.1,0.8,0.3,1.1s0.6,0.4,1,0.4c1,0,1.4-0.5,1.4-1.5V212h1.1v4.4
		c0,0.8-0.2,1.4-0.6,1.8c-0.4,0.4-1.1,0.7-1.9,0.7c-0.8,0-1.4-0.2-1.8-0.6C160.5,218,160.3,217.4,160.3,216.8z"/>
	<path class="st3" d="M172.2,218.8l-0.7,0.1c-0.1,0-0.2-0.1-0.3-0.2l-3.1-5l0.1,5.1h-1.1V212l0.7-0.1c0.1,0,0.3,0.1,0.4,0.2l3.1,5
		l-0.2-5.1h1.1V218.8z"/>
	<path class="st3" d="M174.2,218.8V212h1.1v6.8H174.2z"/>
	<path class="st3" d="M178.4,218.8v-5.9h-2V212h5.2l-0.1,0.8h-1.9v5.9h-1.2V218.8z"/>
	<path class="st3" d="M184.1,218.8v-2.7l-2.2-4l1.1-0.1l1.7,3.2l1.7-3.2l1.1,0.1l-2.2,4v2.7H184.1z"/>
</g>
<rect x="82.4" y="193.1" class="st4" width="104.8" height="6"/>
<g>
	<path id="path46" class="st3" d="M87.5,188c0-4.4-1.3-6.7-3.8-6.8c-1,0-2,0.1-2.9,0.5c-0.8,0.3-1.3,0.5-1.5,0.8V193
		c1.6,1,3,1.5,4.3,1.4C86.1,194.3,87.5,192.1,87.5,188z M90.6,188.2c0,2.2-0.5,4.1-1.6,5.6c-1.2,1.7-2.8,2.5-4.9,2.6
		c-1.6,0.1-3.2-0.4-4.9-1.5v9.6l-2.7-1v-21.3c0.4-0.5,1-1,1.7-1.4c1.6-0.9,3.6-1.4,5.9-1.4l0,0c2.1,0,3.7,0.8,4.9,2.6
		C90,183.6,90.6,185.7,90.6,188.2z"/>
	<path id="path48" class="st3" d="M107.1,194.5c0,3-0.3,5.1-0.9,6.3s-1.8,2.1-3.5,2.8c-1.4,0.5-2.9,0.8-4.5,0.9l-0.4-1.7
		c1.6-0.2,2.8-0.4,3.4-0.7c1.3-0.4,2.2-1.1,2.7-2c0.4-0.7,0.6-2.2,0.6-4.3V195c-1.9,0.8-3.8,1.3-5.8,1.3c-1.3,0-2.5-0.4-3.5-1.3
		c-1.1-0.9-1.7-2.1-1.7-3.5v-11.3l2.7-0.9v11.3c0,1.2,0.4,2.1,1.2,2.8s1.8,1,3,0.9c1.2,0,2.6-0.5,4-1.4v-13.2h2.7L107.1,194.5
		L107.1,194.5z"/>
	<path id="path50" class="st3" d="M117.7,196.2c-0.3,0-0.6,0-0.9,0c-1.5,0-2.7-0.4-3.6-1.1c-0.9-0.7-1.3-1.7-1.3-3v-10.7H110v-1.7
		h1.9v-4.5l2.7-1v5.5h3v1.7h-3V192c0,1,0.3,1.7,0.8,2.2c0.5,0.3,1.2,0.5,2.2,0.6L117.7,196.2L117.7,196.2z"/>
	<path id="path52" class="st3" d="M134.1,196h-2.7v-10.4c0-1.1-0.2-2-0.7-2.7c-0.6-0.9-1.4-1.3-2.4-1.3c-1.2,0-2.8,0.7-4.7,2V196
		h-2.7v-25l2.7-0.9v11.4c1.7-1.3,3.6-1.9,5.7-1.9c1.4,0,2.6,0.5,3.5,1.4c0.9,1,1.3,2.2,1.3,3.6L134.1,196L134.1,196z"/>
	<path id="path54" class="st3" d="M148.5,187.6c0-1.7-0.3-3.1-1-4.2c-0.8-1.4-2-2.1-3.6-2.1c-3,0.2-4.4,2.3-4.4,6.4
		c0,1.9,0.3,3.4,0.9,4.7c0.8,1.6,2,2.4,3.6,2.4C147,194.6,148.5,192.3,148.5,187.6z M151.4,187.6c0,2.4-0.6,4.4-1.9,6
		c-1.4,1.8-3.2,2.7-5.6,2.7c-2.4,0-4.2-0.9-5.6-2.7c-1.2-1.6-1.8-3.6-1.8-6c0-2.3,0.7-4.2,2-5.7c1.4-1.7,3.2-2.5,5.4-2.5
		s4.1,0.8,5.5,2.5C150.8,183.4,151.4,185.3,151.4,187.6z"/>
	<path id="path56" class="st3" d="M167,196h-2.7v-11c0-1.2-0.4-2.2-1.1-2.8c-0.7-0.7-1.7-1-2.9-1c-1.3,0-2.5,0.4-3.7,1.3V196h-2.7
		v-13.9c1.6-1.1,3-1.9,4.3-2.2c1.2-0.3,2.3-0.5,3.3-0.5c0.6,0,1.2,0.1,1.8,0.2c1.1,0.2,1.9,0.7,2.6,1.4c0.7,0.7,1.1,1.6,1.1,2.7
		L167,196L167,196z"/>
	<path id="text3004" class="st3" d="M172.2,177.4h0.5v-3h1.1V174h-2.7v0.4h1.1L172.2,177.4 M174.2,177.4h0.4v-2.7l0.9,2.7h0.5
		l0.9-2.7v2.7h0.4V174h-0.6l-1,2.9l-0.9-2.9h-0.7v3.4"/>
</g>
<g>
	<path class="st3" d="M170.9,195.9c-0.1-0.1-0.1-0.2-0.1-0.4s0-0.3,0.1-0.4c0.1-0.1,0.2-0.2,0.4-0.2s0.3,0.1,0.4,0.2
		c0.1,0.1,0.1,0.2,0.1,0.4s0,0.3-0.1,0.4c-0.1,0.1-0.2,0.2-0.4,0.2C171.1,196,171,196,170.9,195.9z"/>
	<path class="st3" d="M173,195.6v-5.9l0.9-0.1v2.1c0.4-0.2,0.8-0.3,1.2-0.3c0.5,0,0.9,0.2,1.2,0.6s0.5,0.9,0.5,1.7
		c0,0.7-0.2,1.3-0.5,1.7c-0.4,0.4-0.9,0.6-1.6,0.6c-0.3,0-0.6,0-0.9-0.1C173.4,195.8,173.2,195.7,173,195.6z M175.8,193.7
		c0-0.5-0.1-0.9-0.3-1.2c-0.2-0.2-0.4-0.4-0.8-0.4c-0.3,0-0.6,0.1-0.9,0.2v2.9c0.2,0.1,0.4,0.1,0.7,0.1c0.5,0,0.8-0.1,0.9-0.4
		C175.8,194.6,175.8,194.2,175.8,193.7z"/>
	<path class="st3" d="M180.9,195l0.3,0.6c-0.1,0.1-0.3,0.2-0.6,0.3s-0.6,0.2-1,0.2c-0.6,0-1.1-0.2-1.5-0.6c-0.4-0.4-0.6-0.9-0.6-1.7
		c0-0.4,0.1-0.8,0.2-1.1c0.1-0.3,0.3-0.6,0.5-0.7c0.4-0.4,0.9-0.5,1.4-0.5s0.8,0.1,1.1,0.4c0.3,0.2,0.4,0.5,0.4,0.9
		c0,0.5-0.2,0.8-0.7,1.1c-0.4,0.3-1.1,0.4-2.1,0.4c0,0.3,0.1,0.5,0.3,0.8c0.2,0.2,0.5,0.4,0.9,0.4S180.5,195.2,180.9,195z
		 M180.4,192.7c0-0.2-0.1-0.3-0.2-0.4c-0.1-0.1-0.3-0.2-0.5-0.2c-0.4,0-0.7,0.1-0.9,0.4c-0.2,0.3-0.4,0.6-0.4,1.1
		C179.7,193.6,180.4,193.3,180.4,192.7z"/>
</g>
<g>
	
		<linearGradient id="SVGID_3_" gradientUnits="userSpaceOnUse" x1="243.2097" y1="875.0419" x2="267.6894" y2="896.1034" gradientTransform="matrix(1 0 0 -1 0 901.3386)">
		<stop  offset="0" style="stop-color:#5A9FD4"/>
		<stop  offset="1" style="stop-color:#306998"/>
	</linearGradient>
	<path class="st5" d="M268.4,1c-1.2-0.2-2.4-0.3-3.6-0.3s-2.3,0.1-3.3,0.3c-2.9,0.5-3.4,1.6-3.4,3.6v2.6h6.8V8h-6.8h-2.6
		c-2,0-3.7,1.2-4.3,3.5c-0.6,2.6-0.7,4.2,0,6.9c0.5,2,1.6,3.5,3.6,3.5h2.3v-3.1c0-2.3,2-4.3,4.3-4.3h6.8c1.9,0,3.4-1.6,3.4-3.5V4.5
		C271.8,2.7,270.2,1.3,268.4,1z M261.1,5.4c-0.7,0-1.3-0.6-1.3-1.3s0.6-1.3,1.3-1.3c0.7,0,1.3,0.6,1.3,1.3S261.8,5.4,261.1,5.4z"/>
	
		<linearGradient id="SVGID_4_" gradientUnits="userSpaceOnUse" x1="273.155" y1="889.7328" x2="264.0423" y2="876.84" gradientTransform="matrix(1 0 0 -1 0 901.3386)">
		<stop  offset="0" style="stop-color:#FFD43B"/>
		<stop  offset="1" style="stop-color:#FFE873"/>
	</linearGradient>
	<path class="st6" d="M278.6,11.5c-0.5-2-1.4-3.5-3.4-3.5h-2.6v3c0,2.4-2,4.3-4.3,4.3h-6.8c-1.9,0-3.4,1.6-3.4,3.5v6.5
		c0,1.8,1.6,2.9,3.4,3.5c2.2,0.6,4.3,0.8,6.8,0c1.7-0.5,3.4-1.5,3.4-3.5v-2.6H265v-0.9h6.8h3.4c2,0,2.7-1.4,3.4-3.5
		C279.4,16.2,279.3,14.2,278.6,11.5z M268.8,24.5c0.7,0,1.3,0.6,1.3,1.3s-0.6,1.3-1.3,1.3s-1.3-0.6-1.3-1.3
		C267.5,25,268.1,24.5,268.8,24.5z"/>
</g>
<rect x="250" class="st0" width="30" height="30"/>
<polyline class="st7" points="281,1.4 355.8,43.4 429,1.7 "/>
<rect x="280" class="st0" width="150" height="45"/>
<polyline class="st8" points="448,1 431,20.3 448,39 "/>
<rect x="430" class="st0" width="18" height="40"/>
<polyline class="st8" points="450,39 467,19.7 450,1 "/>
<rect x="450" class="st0" width="18" height="40"/>
<path class="st9" d="M274,35.4c-0.8,0.4-1.8,0.7-2.7,0.8c1-0.6,1.8-1.5,2.1-2.6c-0.9,0.5-1.9,0.9-3,1.2c-0.8-0.9-2.1-1.5-3.4-1.5
	c-2.6,0-4.8,2.1-4.8,4.8c0,0.3,0,0.8,0.1,1.1c-3.9-0.2-7.4-2.1-9.7-4.9c-0.4,0.7-0.7,1.5-0.7,2.3c0,1.7,0.8,3.1,2.1,3.9
	c-0.8,0-1.5-0.2-2.2-0.6c0,0,0,0,0,0.1c0,2.2,1.6,4.2,3.8,4.6c-0.4,0.1-0.8,0.2-1.2,0.2c-0.3,0-0.6,0-0.9-0.1
	c0.6,1.8,2.3,3.2,4.4,3.2c-1.6,1.2-3.7,2-5.8,2c-0.4,0-0.8,0-1.1-0.1c2.1,1.3,4.6,2.1,7.3,2.1c8.7,0,13.4-7.2,13.4-13.4
	c0-0.2,0-0.4,0-0.6C272.6,37.1,273.3,36.3,274,35.4z"/>
<rect x="250" y="30" class="st0" width="25" height="25"/>
<polyline class="st8" points="265,55.8 250.8,70.2 265,84.2 "/>
<rect x="250" y="55" class="st0" width="15" height="30"/>
<polyline class="st8" points="265,84.2 279.2,69.8 265,55.8 "/>
<rect x="265" y="55" class="st0" width="15" height="30"/>
</svg>
